<svg width="56" height="55" viewBox="0 0 56 55" fill="none" xmlns="http://www.w3.org/2000/svg">
<path d="M6.43924 55C4.75868 55 3.32002 54.4016 2.12326 53.2049C0.926505 52.0081 0.328125 50.5694 0.328125 48.8889V6.11111C0.328125 4.43056 0.926505 2.9919 2.12326 1.79514C3.32002 0.59838 4.75868 0 6.43924 0H49.217C50.8976 0 52.3362 0.59838 53.533 1.79514C54.7297 2.9919 55.3281 4.43056 55.3281 6.11111V48.8889C55.3281 50.5694 54.7297 52.0081 53.533 53.2049C52.3362 54.4016 50.8976 55 49.217 55H6.43924ZM12.5503 42.7778H33.9392V36.6667H12.5503V42.7778ZM12.5503 30.5556H43.1059V24.4444H12.5503V30.5556ZM12.5503 18.3333H43.1059V12.2222H12.5503V18.3333Z" fill="url(#paint0_linear_4593_11901)"/>
<defs>
<linearGradient id="paint0_linear_4593_11901" x1="2.32812" y1="-8.5" x2="83.3281" y2="73" gradientUnits="userSpaceOnUse">
<stop stop-color="white"/>
<stop offset="1" stop-color="#A4EAFF"/>
</linearGradient>
</defs>
</svg>
