<svg width="17" height="18" viewBox="0 0 17 18" fill="none" xmlns="http://www.w3.org/2000/svg">
<mask id="mask0_4593_11777" style="mask-type:alpha" maskUnits="userSpaceOnUse" x="0" y="0" width="17" height="18">
<rect y="0.5" width="17" height="17" fill="#D9D9D9"/>
</mask>
<g mask="url(#mask0_4593_11777)">
<path d="M2.40581 12.1178L0.776648 10.5241C0.634981 10.3824 0.564148 10.2171 0.564148 10.0282C0.564148 9.83933 0.634981 9.67405 0.776648 9.53238C1.81554 8.41086 3.0138 7.56971 4.37144 7.00895C5.72908 6.44818 7.10443 6.1678 8.49748 6.1678C9.89054 6.1678 11.2629 6.44818 12.6147 7.00895C13.9664 7.56971 15.1676 8.41086 16.2183 9.53238C16.36 9.67405 16.4308 9.83933 16.4308 10.0282C16.4308 10.2171 16.36 10.3824 16.2183 10.5241L14.5891 12.1178C14.4593 12.2477 14.3088 12.3185 14.1376 12.3303C13.9664 12.3421 13.81 12.2949 13.6683 12.1886L11.6141 10.6303C11.5197 10.5595 11.4489 10.4768 11.4016 10.3824C11.3544 10.2879 11.3308 10.1817 11.3308 10.0636V8.04488C10.8822 7.90322 10.4218 7.79106 9.94957 7.70843C9.47734 7.62579 8.99331 7.58447 8.49748 7.58447C8.00165 7.58447 7.51762 7.62579 7.0454 7.70843C6.57318 7.79106 6.11276 7.90322 5.66415 8.04488V10.0636C5.66415 10.1817 5.64054 10.2879 5.59331 10.3824C5.54609 10.4768 5.47526 10.5595 5.38082 10.6303L3.32665 12.1886C3.18498 12.2949 3.02856 12.3421 2.85738 12.3303C2.6862 12.3185 2.53568 12.2477 2.40581 12.1178ZM4.24748 8.61155C3.90512 8.78863 3.57456 8.99228 3.25581 9.22249C2.93706 9.4527 2.60651 9.70947 2.26415 9.9928L2.97248 10.7011L4.24748 9.70947V8.61155ZM12.7475 8.64697V9.70947L14.0225 10.7011L14.7308 10.0282C14.3885 9.72127 14.0579 9.45565 13.7391 9.23134C13.4204 9.00704 13.0898 8.81225 12.7475 8.64697Z" fill="white"/>
</g>
</svg>
