<svg width="98" height="24" viewBox="0 0 98 24" fill="none" xmlns="http://www.w3.org/2000/svg">
<path d="M0.958313 5L4.95831 9.375V14.0417L0.958313 19V5Z" fill="#A4EAFF"/>
<rect x="0.958313" y="8.5" width="3.5" height="11.0833" transform="rotate(-90 0.958313 8.5)" fill="#A4EAFF"/>
<rect x="0.958313" y="19" width="3.5" height="9.91667" transform="rotate(-90 0.958313 19)" fill="#A4EAFF"/>
<path d="M12.0416 19L8.54163 19L8.54163 15.5C8.54163 13.567 10.1086 12 12.0416 12L12.0416 19Z" fill="#A4EAFF"/>
<path d="M28.9216 10.192C28.6656 9.72267 28.3136 9.36533 27.8656 9.12C27.4176 8.87467 26.895 8.752 26.2976 8.752C25.6363 8.752 25.0496 8.90133 24.5376 9.2C24.0256 9.49867 23.6256 9.92533 23.3376 10.48C23.0496 11.0347 22.9056 11.6747 22.9056 12.4C22.9056 13.1467 23.0496 13.7973 23.3376 14.352C23.6363 14.9067 24.047 15.3333 24.5696 15.632C25.0923 15.9307 25.7003 16.08 26.3936 16.08C27.247 16.08 27.9456 15.856 28.4896 15.408C29.0336 14.9493 29.391 14.3147 29.5616 13.504H25.7216V11.792H31.7696V13.744C31.6203 14.5227 31.3003 15.2427 30.8096 15.904C30.319 16.5653 29.6843 17.0987 28.9056 17.504C28.1376 17.8987 27.2736 18.096 26.3136 18.096C25.2363 18.096 24.2603 17.856 23.3856 17.376C22.5216 16.8853 21.839 16.208 21.3376 15.344C20.847 14.48 20.6016 13.4987 20.6016 12.4C20.6016 11.3013 20.847 10.32 21.3376 9.456C21.839 8.58133 22.5216 7.904 23.3856 7.424C24.2603 6.93333 25.231 6.688 26.2976 6.688C27.5563 6.688 28.6496 6.99733 29.5776 7.616C30.5056 8.224 31.1456 9.08267 31.4976 10.192H28.9216ZM35.8269 10.512C36.1149 10.0427 36.4882 9.67467 36.9469 9.408C37.4162 9.14133 37.9495 9.008 38.5469 9.008V11.36H37.9549C37.2509 11.36 36.7175 11.5253 36.3549 11.856C36.0029 12.1867 35.8269 12.7627 35.8269 13.584V18H33.5869V9.136H35.8269V10.512ZM44.1516 18.144C43.2983 18.144 42.5303 17.9573 41.8476 17.584C41.165 17.2 40.6263 16.6613 40.2316 15.968C39.8476 15.2747 39.6556 14.4747 39.6556 13.568C39.6556 12.6613 39.853 11.8613 40.2476 11.168C40.653 10.4747 41.2023 9.94133 41.8956 9.568C42.589 9.184 43.3623 8.992 44.2156 8.992C45.069 8.992 45.8423 9.184 46.5356 9.568C47.229 9.94133 47.773 10.4747 48.1676 11.168C48.573 11.8613 48.7756 12.6613 48.7756 13.568C48.7756 14.4747 48.5676 15.2747 48.1516 15.968C47.7463 16.6613 47.1916 17.2 46.4876 17.584C45.7943 17.9573 45.0156 18.144 44.1516 18.144ZM44.1516 16.192C44.557 16.192 44.9356 16.096 45.2876 15.904C45.6503 15.7013 45.9383 15.4027 46.1516 15.008C46.365 14.6133 46.4716 14.1333 46.4716 13.568C46.4716 12.7253 46.2476 12.08 45.7996 11.632C45.3623 11.1733 44.8236 10.944 44.1836 10.944C43.5436 10.944 43.005 11.1733 42.5676 11.632C42.141 12.08 41.9276 12.7253 41.9276 13.568C41.9276 14.4107 42.1356 15.0613 42.5516 15.52C42.9783 15.968 43.5116 16.192 44.1516 16.192ZM62.8668 9.136L60.2748 18H57.8588L56.2428 11.808L54.6268 18H52.1948L49.5868 9.136H51.8588L53.4268 15.888L55.1228 9.136H57.4908L59.1548 15.872L60.7228 9.136H62.8668ZM66.8468 10.976V15.264C66.8468 15.5627 66.9161 15.7813 67.0548 15.92C67.2041 16.048 67.4494 16.112 67.7908 16.112H68.8308V18H67.4228C65.5348 18 64.5908 17.0827 64.5908 15.248V10.976H63.5348V9.136H64.5908V6.944H66.8468V9.136H68.8308V10.976H66.8468ZM75.5939 9.008C76.2659 9.008 76.8632 9.15733 77.3859 9.456C77.9085 9.744 78.3139 10.176 78.6019 10.752C78.9005 11.3173 79.0499 12 79.0499 12.8V18H76.8099V13.104C76.8099 12.4 76.6339 11.8613 76.2819 11.488C75.9299 11.104 75.4499 10.912 74.8419 10.912C74.2232 10.912 73.7325 11.104 73.3699 11.488C73.0179 11.8613 72.8419 12.4 72.8419 13.104V18H70.6019V6.16H72.8419V10.24C73.1299 9.856 73.5139 9.55733 73.9939 9.344C74.4739 9.12 75.0072 9.008 75.5939 9.008ZM89.58 13.376C89.58 13.696 89.5587 13.984 89.516 14.24H83.036C83.0893 14.88 83.3133 15.3813 83.708 15.744C84.1027 16.1067 84.588 16.288 85.164 16.288C85.996 16.288 86.588 15.9307 86.94 15.216H89.356C89.1 16.0693 88.6093 16.7733 87.884 17.328C87.1587 17.872 86.268 18.144 85.212 18.144C84.3587 18.144 83.5907 17.9573 82.908 17.584C82.236 17.2 81.708 16.6613 81.324 15.968C80.9507 15.2747 80.764 14.4747 80.764 13.568C80.764 12.6507 80.9507 11.8453 81.324 11.152C81.6973 10.4587 82.22 9.92533 82.892 9.552C83.564 9.17867 84.3373 8.992 85.212 8.992C86.0547 8.992 86.8067 9.17333 87.468 9.536C88.14 9.89867 88.6573 10.416 89.02 11.088C89.3933 11.7493 89.58 12.512 89.58 13.376ZM87.26 12.736C87.2493 12.16 87.0413 11.7013 86.636 11.36C86.2307 11.008 85.7347 10.832 85.148 10.832C84.5933 10.832 84.124 11.0027 83.74 11.344C83.3667 11.6747 83.1373 12.1387 83.052 12.736H87.26ZM93.615 10.512C93.903 10.0427 94.2763 9.67467 94.735 9.408C95.2043 9.14133 95.7377 9.008 96.335 9.008V11.36H95.743C95.039 11.36 94.5057 11.5253 94.143 11.856C93.791 12.1867 93.615 12.7627 93.615 13.584V18H91.375V9.136H93.615V10.512Z" fill="#A4EAFF"/>
</svg>
