<svg width="22" height="22" viewBox="0 0 22 22" fill="none" xmlns="http://www.w3.org/2000/svg">
<path d="M8.89075 14.0656V7.93513L14.2801 11.0007L8.89075 14.0656ZM20.878 6.00531C20.6346 5.11088 19.9471 4.41925 19.0733 4.1745L19.0547 4.17038C16.8596 3.89125 14.3206 3.73175 11.7439 3.73175C11.4819 3.73175 11.2207 3.73313 10.9601 3.73656L11 3.73588C10.7786 3.73313 10.5181 3.73106 10.2561 3.73106C7.67937 3.73106 5.13906 3.89056 2.6455 4.19925L2.94387 4.169C2.05218 4.41856 1.36468 5.1095 1.12612 5.98606L1.122 6.00394C0.846997 7.45388 0.690247 9.12244 0.690247 10.8274C0.690247 10.8879 0.690247 10.9484 0.690934 11.0083V10.9986C0.690934 11.0495 0.690247 11.11 0.690247 11.1705C0.690247 12.8755 0.847684 14.5434 1.14812 16.1611L1.122 15.9933C1.36537 16.8878 2.05287 17.5794 2.92668 17.8241L2.94525 17.8283C5.14043 18.1074 7.67937 18.2669 10.2561 18.2669C10.5174 18.2669 10.7786 18.2655 11.0399 18.2621L11 18.2628C11.2214 18.2655 11.4826 18.2676 11.7439 18.2676C14.3213 18.2676 16.8609 18.1081 19.3545 17.7994L19.0561 17.8296C19.9485 17.5808 20.636 16.8891 20.8752 16.0126L20.8794 15.9947C21.1537 14.5448 21.3104 12.8762 21.3104 11.1719C21.3104 11.1114 21.3104 11.0509 21.3097 10.9911V11C21.3097 10.9491 21.3104 10.8886 21.3104 10.8281C21.3104 9.12313 21.153 7.45525 20.8526 5.83756L20.878 6.00531Z" fill="#335FDE"/>
</svg>
