<svg width="18" height="18" viewBox="0 0 18 18" fill="none" xmlns="http://www.w3.org/2000/svg">
<g clip-path="url(#clip0_4672_12)">
<path d="M9.00112 5.94053C8.1577 5.92514 7.34257 6.23884 6.73493 6.81266C6.12728 7.38648 5.77687 8.17345 5.76072 9.00055C5.7769 9.82764 6.12733 10.6146 6.73497 11.1884C7.34261 11.7622 8.15772 12.0758 9.00112 12.0605C9.84439 12.0756 10.6593 11.7618 11.2668 11.1881C11.8742 10.6143 12.2246 9.8275 12.2408 9.00055C12.2246 8.17359 11.8743 7.38675 11.2668 6.81296C10.6593 6.23917 9.84441 5.92537 9.00112 5.94053Z" fill="#335FDE"/>
<path d="M14.0168 0.5H3.98328C2.92686 0.500033 1.91372 0.911596 1.16671 1.64416C0.41971 2.37672 3.32004e-05 3.37028 0 4.40628L0 13.5937C0 14.6297 0.419666 15.6233 1.16668 16.3559C1.91369 17.0884 2.92685 17.5 3.98328 17.5H14.0168C14.5399 17.5 15.0579 17.399 15.5412 17.2027C16.0244 17.0063 16.4635 16.7186 16.8334 16.3559C17.2033 15.9931 17.4967 15.5625 17.6968 15.0886C17.897 14.6147 18 14.1067 18 13.5937V4.40628C18 3.37029 17.5804 2.37673 16.8334 1.64417C16.0864 0.9116 15.0733 0.500033 14.0168 0.5ZM9.00301 13.4211C7.78488 13.4432 6.60767 12.99 5.73009 12.1613C4.85251 11.3325 4.34637 10.196 4.32292 9.00141C4.34637 7.80686 4.85251 6.67031 5.73009 5.84155C6.60767 5.0128 7.78488 4.55966 9.00301 4.58171C10.2211 4.55966 11.3983 5.0128 12.2759 5.84155C13.1535 6.67031 13.6596 7.80686 13.6831 9.00141C13.6596 10.196 13.1535 11.3325 12.2759 12.1613C11.3983 12.99 10.2211 13.4432 9.00301 13.4211ZM14.22 5.26112C13.8921 5.26704 13.5752 5.14501 13.3389 4.92186C13.1027 4.69872 12.9665 4.39271 12.9602 4.07112C12.9728 3.75167 13.1111 3.44941 13.346 3.22776C13.5809 3.00611 13.8942 2.88229 14.2202 2.88229C14.5462 2.88229 14.8595 3.00611 15.0944 3.22776C15.3294 3.44941 15.4676 3.75167 15.4802 4.07112C15.4739 4.39276 15.3376 4.69878 15.1013 4.92192C14.865 5.14507 14.548 5.26707 14.22 5.26112Z" fill="#335FDE"/>
</g>
<defs>
<clipPath id="clip0_4672_12">
<rect width="18" height="17" fill="white" transform="translate(0 0.5)"/>
</clipPath>
</defs>
</svg>
