<svg width="20" height="20" viewBox="0 0 20 20" fill="none" xmlns="http://www.w3.org/2000/svg">
<path d="M16.1012 4.63516C15.9746 4.56975 15.8514 4.49804 15.732 4.42031C15.3849 4.1908 15.0666 3.92037 14.784 3.61484C14.0769 2.80586 13.8129 1.98516 13.7156 1.41055H13.7195C13.6383 0.933594 13.6719 0.625 13.6769 0.625H10.4566V13.0773C10.4566 13.2445 10.4566 13.4098 10.4496 13.573C10.4496 13.5934 10.4477 13.6121 10.4465 13.634C10.4465 13.643 10.4465 13.6523 10.4445 13.6617C10.4445 13.6641 10.4445 13.6664 10.4445 13.6687C10.4106 14.1155 10.2674 14.5471 10.0275 14.9256C9.78756 15.304 9.45834 15.6177 9.06875 15.8391C8.66271 16.0701 8.20347 16.1912 7.73632 16.1906C6.23593 16.1906 5.01992 14.9672 5.01992 13.4562C5.01992 11.9453 6.23593 10.7219 7.73632 10.7219C8.02034 10.7216 8.30261 10.7663 8.57265 10.8543L8.57656 7.57539C7.75678 7.4695 6.92395 7.53465 6.13061 7.76673C5.33727 7.99882 4.60064 8.3928 3.96718 8.92383C3.41213 9.40609 2.9455 9.98152 2.58828 10.6242C2.45234 10.8586 1.93945 11.8004 1.87734 13.3289C1.83828 14.1965 2.09882 15.0953 2.22304 15.4668V15.4746C2.30117 15.6934 2.6039 16.4398 3.09726 17.0691C3.49509 17.5739 3.96511 18.0174 4.49218 18.3852V18.3773L4.5 18.3852C6.05898 19.4445 7.7875 19.375 7.7875 19.375C8.08672 19.3629 9.08906 19.375 10.2273 18.8355C11.4898 18.2375 12.2086 17.3465 12.2086 17.3465C12.6678 16.8141 13.0329 16.2074 13.2883 15.5523C13.5797 14.7863 13.6769 13.8676 13.6769 13.5004V6.89414C13.716 6.91758 14.2363 7.26172 14.2363 7.26172C14.2363 7.26172 14.9859 7.74219 16.1555 8.05508C16.9945 8.27773 18.125 8.32461 18.125 8.32461V5.12773C17.7289 5.1707 16.9246 5.0457 16.1012 4.63516Z" fill="#335FDE"/>
</svg>
