<svg width="70" height="81" viewBox="0 0 70 81" fill="none" xmlns="http://www.w3.org/2000/svg">
<path d="M33.98 80.76C27.5267 80.76 21.2933 80.0267 15.28 78.56C9.26667 77.0933 4.31667 75.1867 0.43 72.84L8.79 53.92C12.4567 56.0467 16.5267 57.77 21 59.09C25.5467 60.3367 29.9467 60.96 34.2 60.96C36.6933 60.96 38.6367 60.8133 40.03 60.52C41.4967 60.1533 42.56 59.6767 43.22 59.09C43.88 58.43 44.21 57.66 44.21 56.78C44.21 55.3867 43.44 54.2867 41.9 53.48C40.36 52.6733 38.3067 52.0133 35.74 51.5C33.2467 50.9133 30.4967 50.3267 27.49 49.74C24.4833 49.08 21.44 48.2367 18.36 47.21C15.3533 46.1833 12.5667 44.8267 10 43.14C7.50667 41.4533 5.49 39.2533 3.95 36.54C2.41 33.7533 1.64 30.3067 1.64 26.2C1.64 21.4333 2.96 17.1067 5.6 13.22C8.31333 9.26 12.31 6.10667 17.59 3.76C22.9433 1.41333 29.58 0.239998 37.5 0.239998C42.7067 0.239998 47.84 0.789997 52.9 1.89C57.96 2.99 62.5067 4.67666 66.54 6.95L58.73 25.76C54.9167 23.8533 51.2133 22.4233 47.62 21.47C44.1 20.5167 40.6533 20.04 37.28 20.04C34.7867 20.04 32.8067 20.26 31.34 20.7C29.8733 21.14 28.81 21.7267 28.15 22.46C27.5633 23.1933 27.27 24 27.27 24.88C27.27 26.2 28.04 27.2633 29.58 28.07C31.12 28.8033 33.1367 29.4267 35.63 29.94C38.1967 30.4533 40.9833 31.0033 43.99 31.59C47.07 32.1767 50.1133 32.9833 53.12 34.01C56.1267 35.0367 58.8767 36.3933 61.37 38.08C63.9367 39.7667 65.99 41.9667 67.53 44.68C69.07 47.3933 69.84 50.7667 69.84 54.8C69.84 59.4933 68.4833 63.82 65.77 67.78C63.13 71.6667 59.17 74.82 53.89 77.24C48.61 79.5867 41.9733 80.76 33.98 80.76Z" fill="url(#paint0_linear_4593_11734)"/>
<defs>
<linearGradient id="paint0_linear_4593_11734" x1="-4.0342" y1="88.5" x2="159.565" y2="80.4134" gradientUnits="userSpaceOnUse">
<stop stop-color="#1045D7"/>
<stop offset="1" stop-color="#EFEBFF"/>
</linearGradient>
</defs>
</svg>
